<mxfile host="65bd71144e">
    <diagram id="E7ANiKeQiK63f9gDNoph" name="Page-1">
        <mxGraphModel dx="1044" dy="652" grid="1" gridSize="10" guides="1" tooltips="1" connect="1" arrows="1" fold="1" page="1" pageScale="1" pageWidth="850" pageHeight="1100" math="0" shadow="0">
            <root>
                <mxCell id="0"/>
                <mxCell id="1" parent="0"/>
                <mxCell id="28" value="" style="edgeStyle=none;html=1;" parent="1" source="5" target="10" edge="1">
                    <mxGeometry relative="1" as="geometry"/>
                </mxCell>
                <mxCell id="44" value="1" style="edgeLabel;html=1;align=center;verticalAlign=middle;resizable=0;points=[];" vertex="1" connectable="0" parent="28">
                    <mxGeometry x="-0.36" relative="1" as="geometry">
                        <mxPoint as="offset"/>
                    </mxGeometry>
                </mxCell>
                <mxCell id="5" value="Jetson booting..." style="image;html=1;image=img/lib/clip_art/networking/Router_128x128.png" parent="1" vertex="1">
                    <mxGeometry x="160" y="392" width="100" height="98" as="geometry"/>
                </mxCell>
                <mxCell id="39" style="edgeStyle=orthogonalEdgeStyle;shape=link;html=1;exitX=0;exitY=0.5;exitDx=0;exitDy=0;entryX=0;entryY=0.5;entryDx=0;entryDy=0;curved=1;fillColor=#FFFF99;width=20;" parent="1" source="10" target="17" edge="1">
                    <mxGeometry relative="1" as="geometry"/>
                </mxCell>
                <mxCell id="49" value="context" style="edgeLabel;html=1;align=center;verticalAlign=middle;resizable=0;points=[];" vertex="1" connectable="0" parent="39">
                    <mxGeometry x="-0.4775" y="2" relative="1" as="geometry">
                        <mxPoint as="offset"/>
                    </mxGeometry>
                </mxCell>
                <mxCell id="41" style="edgeStyle=orthogonalEdgeStyle;html=1;exitX=1;exitY=0.5;exitDx=0;exitDy=0;elbow=vertical;" parent="1" source="10" target="23" edge="1">
                    <mxGeometry relative="1" as="geometry"/>
                </mxCell>
                <mxCell id="47" value="4" style="edgeLabel;html=1;align=center;verticalAlign=middle;resizable=0;points=[];" vertex="1" connectable="0" parent="41">
                    <mxGeometry x="0.2329" y="-2" relative="1" as="geometry">
                        <mxPoint as="offset"/>
                    </mxGeometry>
                </mxCell>
                <mxCell id="42" style="edgeStyle=orthogonalEdgeStyle;html=1;exitX=1;exitY=0.5;exitDx=0;exitDy=0;entryX=0.003;entryY=0;entryDx=0;entryDy=0;entryPerimeter=0;elbow=vertical;" parent="1" source="9" target="25" edge="1">
                    <mxGeometry relative="1" as="geometry"/>
                </mxCell>
                <mxCell id="46" value="3" style="edgeLabel;html=1;align=center;verticalAlign=middle;resizable=0;points=[];" vertex="1" connectable="0" parent="42">
                    <mxGeometry x="-0.0269" y="-1" relative="1" as="geometry">
                        <mxPoint as="offset"/>
                    </mxGeometry>
                </mxCell>
                <mxCell id="43" style="edgeStyle=orthogonalEdgeStyle;html=1;exitX=1;exitY=0.25;exitDx=0;exitDy=0;entryX=0;entryY=0.5;entryDx=0;entryDy=0;elbow=vertical;" parent="1" source="9" target="26" edge="1">
                    <mxGeometry relative="1" as="geometry">
                        <Array as="points">
                            <mxPoint x="330" y="303"/>
                            <mxPoint x="330" y="56"/>
                        </Array>
                    </mxGeometry>
                </mxCell>
                <mxCell id="45" value="2" style="edgeLabel;html=1;align=center;verticalAlign=middle;resizable=0;points=[];" vertex="1" connectable="0" parent="43">
                    <mxGeometry x="-0.2095" y="-1" relative="1" as="geometry">
                        <mxPoint as="offset"/>
                    </mxGeometry>
                </mxCell>
                <mxCell id="9" value="/home/bxiong/run.sh" style="swimlane;fontStyle=0;childLayout=stackLayout;horizontal=1;startSize=26;fillColor=#FFFF99;horizontalStack=0;resizeParent=1;resizeParentMax=0;resizeLast=0;collapsible=1;marginBottom=0;" parent="1" vertex="1">
                    <mxGeometry x="140" y="290" width="140" height="52" as="geometry"/>
                </mxCell>
                <mxCell id="10" value="" style="text;strokeColor=none;fillColor=none;align=left;verticalAlign=top;spacingLeft=4;spacingRight=4;overflow=hidden;rotatable=0;points=[[0,0.5],[1,0.5]];portConstraint=eastwest;" parent="9" vertex="1">
                    <mxGeometry y="26" width="140" height="26" as="geometry"/>
                </mxCell>
                <mxCell id="16" value="/home/bxiong/run.sh" style="swimlane;fontStyle=0;childLayout=stackLayout;horizontal=1;startSize=26;fillColor=none;horizontalStack=0;resizeParent=1;resizeParentMax=0;resizeLast=0;collapsible=1;marginBottom=0;" parent="1" vertex="1">
                    <mxGeometry x="380" y="490" width="380" height="182" as="geometry"/>
                </mxCell>
                <mxCell id="17" value="#kill all the exited container&#10;docker ps -a -f status=exited -q |xargs docker rm&#10;cd /home/bxiong/cervical.git/webpage/1_db/ &amp;&amp; ./run.sh&amp;&#10;#give above database process 10s to up&#10;sleep 30&#10;cd /home/bxiong/cervical.git/webpage/2_api_server &amp;&amp; ./run.sh&#10;sleep 30&#10;cd /home/bxiong/cervical.git/segmentation_Mask_RCNN/  &amp;&amp; ./run.sh&#10;sleep 30&#10;cd /home/bxiong/cervical.git/howtoMala &amp;&amp; ./run.sh" style="text;strokeColor=#FF6666;fillColor=#FCFFA6;align=left;verticalAlign=top;spacingLeft=4;spacingRight=4;overflow=hidden;rotatable=0;points=[[0,0.5],[1,0.5]];portConstraint=eastwest;" parent="16" vertex="1">
                    <mxGeometry y="26" width="380" height="156" as="geometry"/>
                </mxCell>
                <mxCell id="22" value="/home/bxiong/cervical.git/segmentation_Mask_RCNN/run.sh" style="swimlane;fontStyle=0;childLayout=stackLayout;horizontal=1;startSize=26;fillColor=#FFFF99;horizontalStack=0;resizeParent=1;resizeParentMax=0;resizeLast=0;collapsible=1;marginBottom=0;" parent="1" vertex="1">
                    <mxGeometry x="420" y="192" width="350" height="280" as="geometry"/>
                </mxCell>
                <mxCell id="23" value="docker run -d --name=&quot;cervical_crop&quot; \&#10;    --log-opt max-size=100m \&#10;    -v /data/datadir:/ai \&#10;    -e WEBURL='http://192.168.1.74:9002' \&#10;    -e ROOTDIR='/ai/thumbor/data/loader' \&#10;    -e PYTHONUNBUFFERED=0 \&#10;      --device /dev/nvhost-as-gpu \&#10;  --device /dev/nvhost-ctrl \&#10;  --device /dev/nvhost-ctrl-gpu \&#10;  --device /dev/nvhost-ctxsw-gpu \&#10;  --device /dev/nvhost-dbg-gpu \&#10;  --device /dev/nvhost-gpu \&#10;  --device /dev/nvhost-prof-gpu \&#10;  --device /dev/nvhost-sched-gpu \&#10;  --device /dev/nvhost-tsg-gpu \&#10;  --device /dev/nvmap \&#10;  cervical:crop_mr_20200628123450 python3 main_SDK.py" style="text;strokeColor=none;fillColor=none;align=left;verticalAlign=top;spacingLeft=4;spacingRight=4;overflow=hidden;rotatable=0;points=[[0,0.5],[1,0.5]];portConstraint=eastwest;" parent="22" vertex="1">
                    <mxGeometry y="26" width="350" height="254" as="geometry"/>
                </mxCell>
                <mxCell id="24" value="/home/bxiong/cervical.git/webpage/2_api_server/run.sh" style="swimlane;fontStyle=0;childLayout=stackLayout;horizontal=1;startSize=26;fillColor=#FFFF99;horizontalStack=0;resizeParent=1;resizeParentMax=0;resizeLast=0;collapsible=1;marginBottom=0;" parent="1" vertex="1">
                    <mxGeometry x="420" y="110" width="320" height="52" as="geometry"/>
                </mxCell>
                <mxCell id="25" value="docker-compose up -d&#10;" style="text;strokeColor=none;fillColor=none;align=left;verticalAlign=top;spacingLeft=4;spacingRight=4;overflow=hidden;rotatable=0;points=[[0,0.5],[1,0.5]];portConstraint=eastwest;" parent="24" vertex="1">
                    <mxGeometry y="26" width="320" height="26" as="geometry"/>
                </mxCell>
                <mxCell id="26" value="/home/bxiong/cervical.git/webpage/1_db/run.sh" style="swimlane;fontStyle=0;childLayout=stackLayout;horizontal=1;startSize=26;fillColor=#FFFF99;horizontalStack=0;resizeParent=1;resizeParentMax=0;resizeLast=0;collapsible=1;marginBottom=0;" parent="1" vertex="1">
                    <mxGeometry x="420" y="30" width="290" height="52" as="geometry"/>
                </mxCell>
                <mxCell id="27" value="docker-compose -f docker-compose-armv8.yml up " style="text;strokeColor=none;fillColor=none;align=left;verticalAlign=top;spacingLeft=4;spacingRight=4;overflow=hidden;rotatable=0;points=[[0,0.5],[1,0.5]];portConstraint=eastwest;" parent="26" vertex="1">
                    <mxGeometry y="26" width="290" height="26" as="geometry"/>
                </mxCell>
            </root>
        </mxGraphModel>
    </diagram>
</mxfile>